<?xml version="1.0" encoding="UTF-8"?>
<svg xmlns:xodm="http://www.corel.com/coreldraw/odm/2003" xmlns="http://www.w3.org/2000/svg" xmlns:xlink="http://www.w3.org/1999/xlink" version="1.1" id="Layer_1" x="0px" y="0px" viewBox="0 0 2500 575" style="enable-background:new 0 0 2500 575;" xml:space="preserve">
<style type="text/css">
	.st0{fill:#FFFFFF;}
	.st1{fill:#4189C9;}
	.st2{fill:#262F71;}
	.st3{fill:#161F42;}
	.st4{fill:#5C94CE;}
	.st5{fill:#6497D0;}
	.st6{fill:#689AD1;}
	.st7{fill:#4E8FCC;}
	.st8{fill:#5591CD;}
	.st9{fill:#418AC9;}
	.st10{fill:#468CCA;}
	.st11{fill:#488DCA;}
	.st12{fill:#428AC9;}
	.st13{fill:#182144;}
	.st14{fill:#458CCA;}
	.st15{fill:#63657D;}
	.st16{fill:#263154;}
	.st17{fill:#A09AA9;}
	.st18{fill:#424A7F;}
	.st19{fill:#8CB7DE;}
	.st20{fill:#5A5D76;}
	.st21{fill:#4F668A;}
	.st22{fill:#555A73;}
	.st23{fill:#6D9CD2;}
	.st24{fill:#729FD4;}
	.st25{fill:#78A2D5;}
	.st26{fill:#7DA5D6;}
	.st27{fill:#81A7D8;}
	.st28{fill:#0E1F66;}
	.st29{fill:#699AD1;}
	.st30{fill:#88ABD9;}
	.st31{fill:url(#SVGID_1_);}
</style>
<g id="Layer_x0020_1">
	<g id="_2806262180352">
		<g>
			<path class="st0" d="M271,1c142.1-8.5,268.2,88.4,297.3,226.8c8.5,37.6,8.5,77.2,0.9,115.7c-18.8,94.1-82.8,173.1-171.2,209.8     c-60.2,25.4-129.8,29.2-191.9,10.4c-85.6-25.4-155.3-90.3-187.2-174.1c-22.6-60.2-24.5-128-4.7-189.1     C49.9,86.6,152.4,7.6,271.9,1H271z"></path>
			<g>
				<path class="st1" d="M111,266.3c0.9,5.6,1.9,10.4,2.8,16c0.9,2.8,1.9,2.8,3.8,0.9c2.8-2.8,6.6-5.6,9.4-7.5      c0.9,0,1.9,0.9,1.9,1.9c9.4,12.2,21.6,19.8,36.7,23.5c6.6,1.9,14.1,2.8,20.7,3.8c-1.9-2.8-3.8-4.7-5.6-8.5      c-2.8-5.6-1.9-10.4,2.8-14.1c4.7-4.7,11.3-7.5,17.9-8.5c13.2-3.8,27.3-3.8,41.4-2.8c11.3,0.9,21.6,2.8,32.9,5.6      c9.4,2.8,17.9,5.6,25.4,10.4c0.9,0.9,1.9,1.9,2.8,2.8c10.4,11.3,16,23.5,16.9,38.6c0,10.4-2.8,19.8-7.5,29.2      c-9.4,16-22.6,28.2-39.5,37.6s-34.8,15.1-53.6,16.9c-33.9,3.8-64.9-3.8-94.1-21.6c-23.5-15.1-42.3-35.8-57.4-59.3      c-6.6-11.3-13.2-22.6-18.8-34.8c-0.9-1.9-0.9-2.8-1.9-4.7c0,1.9,0.9,2.8,0,4.7c-0.9-6.6,0-12.2,0-17.9      c0.9-16.9,3.8-33.9,7.5-49.9c19.8-73.4,72.5-132.7,143-160c20.7-8.5,43.3-14.1,65.9-16c35.8-2.8,70.6,0.9,104.4,13.2      c-4.7,9.4-34.8,35.8-57.4,50.8c-0.9-6.6-1.9-13.2-4.7-18.8c0-1.9,0.9-1.9,1.9-2.8c4.7-3.8,9.4-8.5,14.1-12.2      c0.9,0,0.9-0.9,0.9-0.9c0.9-0.9,1.9-0.9,0.9-1.9c0-0.9-0.9-0.9-1.9-0.9c-1.9-0.9-4.7-0.9-6.6-0.9c-2.8,0-6.6-0.9-9.4-0.9      c-2.8,0-4.7-0.9-7.5-0.9c-0.9,0-2.8,0-3.8,0c-1.9-0.9-3.8,0-6.6,0c-0.9,0-2.8,0-3.8,0c-3.8,0-7.5,0-10.4,0c-0.9,0-1.9,0-2.8,0      s-1.9,0-2.8,0s-2.8,0-3.8,0c-3.8,0-7.5,0.9-11.3,0.9c-4.7,0.9-9.4,0.9-13.2,1.9c-3.8,0.9-8.5,1.9-12.2,2.8      c-5.6,1.9-10.4,2.8-16,4.7c-7.5,2.8-15.1,5.6-22.6,9.4c-16,8.5-32,17.9-45.2,30.1c-13.2,11.3-24.5,23.5-33.9,37.6      c-4.7,6.6-9.4,14.1-13.2,21.6c-2.8,4.7-4.7,9.4-7.5,15.1c-1.9,3.8-3.8,7.5-4.7,11.3c-1.9,3.8-2.8,8.5-4.7,12.2      c-1.9,3.8-2.8,8.5-3.8,12.2c-0.9,1.9-0.9,3.8-0.9,4.7c-0.9,1.9-0.9,3.8-0.9,6.6c-0.9,3.8-0.9,6.6-1.9,10.4      c-0.9,3.8-0.9,7.5-0.9,11.3c-0.9,2.8,0,4.7-0.9,7.5c-0.9,2.8,0,6.6,0,9.4c0,1.9,0,4.7,0,6.6c0,0.9,0,1.9,0.9,2.8      s1.9-0.9,2.8-0.9c2.8-1.9,4.7-4.7,7.5-6.6c8.5-7.5,16.9-15.1,25.4-21.6c0.9-0.9,1.9-1.9,2.8-0.9V266.3z"></path>
				<path class="st2" d="M300.2,288c-10.4-5.6-21.6-9.4-32.9-12.2c-15.1-3.8-30.1-4.7-45.2-3.8c-10.4,0.9-21.6,1.9-32,6.6      c-0.9,0.9-2.8,0.9-3.8,1.9c-8.5,5.6-9.4,12.2-3.8,20.7c0.9,1.9,2.8,2.8,3.8,4.7c-5.6,0-10.4-0.9-14.1-1.9      c-12.2-2.8-23.5-6.6-33.9-15.1c-4.7-3.8-9.4-8.5-12.2-13.2c0.9-1.9,3.8-2.8,5.6-4.7c3.8-1.9,7.5-3.8,11.3-5.6      c17.9-8.5,35.8-13.2,55.5-15.1c7.5-0.9,15.1-1.9,22.6-0.9c22.6,0.9,45.2,4.7,66.8,11.3c5.6,1.9,11.3,3.8,16.9,5.6      c0-1.9-0.9-2.8-1.9-3.8c-1.9-3.8-4.7-7.5-7.5-11.3c-0.9-0.9-2.8-2.8-2.8-4.7c2.8,0.9,6.6,0.9,9.4,1.9c0.9,0,1.9,0.9,1.9,0      c0.9-0.9,0-1.9-0.9-1.9c-4.7-6.6-10.4-12.2-16-17.9c2.8-1.9,6.6,0,9.4,0c32,3.8,61.2,15.1,86.6,34.8      c33.9,26.3,55.5,60.2,64,101.6c2.8,14.1,3.8,28.2,2.8,42.3c-1.9,24.5-9.4,47-24.5,67.7c-0.9,0.9-1.9,2.8-2.8,3.8      c-2.8,4.7-8.5,8.5-12.2,12.2c-24.5,19.8-52.7,30.1-82.8,34.8c-23.5,3.8-48,3.8-71.5,0.9c-37.6-4.7-73.4-17.9-104.4-39.5      c-7.5-4.7-15.1-10.4-21.6-16.9v-0.9l0,0c0.9-0.9,1.9,0.9,2.8,0.9c16,12.2,33.9,20.7,53.6,25.4c6.6,1.9,13.2,2.8,19.8,3.8      c1.9,0.9,2.8,0,4.7,0.9h0.9c15.1,1.9,30.1,0.9,44.2-1.9c32-5.6,61.2-18.8,85.6-41.4c16.9-15.1,30.1-32,36.7-53.6      c6.6-21.6,5.6-42.3-3.8-63c-1.9,9.4-6.6,16.9-13.2,24.5c-6.6,6.6-13.2,13.2-21.6,16.9c-0.9,0.9-1.9,1.9-2.8,0.9s0-1.9,0-2.8      c1.9-6.6,2.8-13.2,3.8-19.8c2.8-28.2-8.5-49.9-30.1-66.8c-3.8-2.8-7.5-5.6-11.3-7.5L300.2,288z"></path>
				<path class="st3" d="M207,503.4c-8.5-0.9-16-2.8-24.5-4.7c-15.1-4.7-29.2-11.3-42.3-19.8c-2.8-1.9-5.6-4.7-9.4-6.6      c-1.9,0-2.8-1.9-4.7-2.8c-32.9-29.2-55.5-65.9-68.7-107.3c-6.6-20.7-9.4-41.4-10.4-63c0-1.9,0-2.8,0-5.6      c1.9,3.8,2.8,6.6,3.8,9.4c12.2,26.3,27.3,49.9,48,69.6c22.6,20.7,48,34.8,79,40.5c35.8,5.6,69.6,0,99.7-19.8      c15.1-9.4,28.2-21.6,34.8-38.6c8.5-20.7,5.6-39.5-7.5-57.4c-0.9-1.9-2.8-2.8-3.8-4.7c1.9-0.9,2.8,0,3.8,0.9      c7.5,6.6,14.1,15.1,18.8,24.5c3.8,9.4,6.6,18.8,6.6,29.2s-1.9,19.8-6.6,29.2c0.9,0,1.9,0,2.8-0.9c4.7-2.8,8.5-5.6,12.2-8.5      c0.9-0.9,1.9-2.8,3.8-1.9c-0.9,7.5-2.8,15.1-4.7,22.6c4.7-2.8,9.4-5.6,14.1-9.4c3.8-2.8,6.6-6.6,10.4-9.4      c1.9,0.9,1.9,1.9,1.9,3.8c5.6,20.7,1.9,39.5-8.5,57.4c-12.2,21.6-30.1,38.6-50.8,51.8c-16.9,10.4-35.8,17.9-55.5,22.6      c-12.2,2.8-24.5,3.8-37.6,1.9l0,0c-1.9-0.9-3.8,0-4.7-0.9V503.4z"></path>
				<path class="st1" d="M516.6,352c-0.9-23.5-6.6-46.1-16.9-67.7c-6.6-14.1-15.1-26.3-24.5-38.6c-8.5-10.4-18.8-19.8-30.1-28.2      c0.9-0.9,1.9-0.9,3.8-0.9c15.1,1.9,30.1,5.6,44.2,10.4c3.8,0.9,6.6,2.8,10.4,4.7c0.9,0.9,1.9,0.9,3.8,1.9c0,0,0,0.9,0.9,0.9      v-0.9c-9.4-12.2-21.6-23.5-33.9-32.9c-15.1-12.2-31.1-21.6-48-30.1c-23.5-11.3-48.9-18.8-75.3-22.6c-1.9,0-4.7,0-6.6-0.9      c0-1.9,0.9-1.9,1.9-2.8c15.1-13.2,27.3-28.2,36.7-46.1c2.8-5.6,4.7-11.3,6.6-16.9c0.9-1.9,0.9-3.8,2.8-4.7      c27.3,13.2,51.8,32,72.5,53.6c54.6,60.2,75.3,143,54.6,221.1c-0.9,0-0.9,0-0.9-0.9L516.6,352z"></path>
				<path class="st3" d="M423.4,480.9c0-2.8,1.9-3.8,2.8-5.6c11.3-16,17.9-33.9,21.6-52.7c1.9-12.2,2.8-23.5,1.9-35.8      c-0.9-17.9-5.6-35.8-13.2-52.7c-5.6-12.2-12.2-24.5-19.8-34.8c-8.5-11.3-18.8-21.6-29.2-31.1c-16.9-14.1-36.7-24.5-57.4-31.1      c-11.3-3.8-22.6-5.6-34.8-7.5c-1.9,0-3.8-0.9-6.6-0.9c-7.5-5.6-15.1-10.4-23.5-15.1v-0.9c2.8,0,6.6,0,9.4,0      c43.3-0.9,82.8,9.4,116.7,35.8c35.8,27.3,58.3,63,66.8,107.3c7.5,37.6,1.9,73.4-19.8,106.3c-3.8,6.6-8.5,13.2-14.1,17.9      L423.4,480.9z"></path>
				<path class="st3" d="M390.5,77.2c-4.7,13.2-9.4,25.4-17.9,37.6c-7.5,11.3-16.9,21.6-28.2,31.1c-0.9,0.9-0.9,0.9-1.9,1.9      c-3.8,1.9-6.6,4.7-10.4,7.5c-12.2,8.5-26.3,15.1-40.5,20.7h-0.9c-0.9-0.9,0-0.9,0.9-1.9c8.5-7.5,13.2-16.9,16-27.3      c0-0.9,0.9-2.8,2.8-2.8c25.4-10.4,45.2-26.3,61.2-47c1.9-1.9,2.8-3.8,4.7-6.6c-4.7,0-8.5,2.8-13.2,2.8c-0.9,0-1.9,0.9-1.9-0.9      c15.1-17.9,27.3-39.5,33.9-62.1c0-1.9,0-3.8,1.9-3.8l0,0l0,0c0,16-2.8,32-6.6,48c0,0.9,0,1.9-0.9,2.8H390.5z"></path>
				<path class="st3" d="M293.6,247.5c4.7,5.6,9.4,12.2,13.2,18.8c0,0.9,0.9,0.9,0,1.9c-0.9,0.9-0.9,0-1.9,0      c-16.9-6.6-33.9-11.3-50.8-14.1c-8.5-1.9-17.9-1.9-26.3-2.8c-8.5-0.9-16,0-24.5,0c-17.9,1.9-35.8,5.6-53.6,13.2      c-5.6,1.9-10.4,4.7-15.1,7.5c-0.9,0-0.9,0.9-1.9,0c15.1-10.4,31.1-17.9,48.9-23.5c23.5-7.5,48-8.5,73.4-6.6      c12.2,0.9,25.4,2.8,37.6,5.6c0.9,0,1.9,0,1.9,0.9L293.6,247.5z"></path>
				<path class="st4" d="M287,76.3h3.8c1.9,0.9,3.8,0,6.6,0.9h3.8c0,1.9-0.9,2.8-1.9,3.8c-16.9,14.1-33.9,29.2-50.8,43.3      c-5.6,4.7-11.3,9.4-16.9,14.1c-0.9,0.9-1.9,0.9-1.9,1.9c-7.5,2.8-14.1,6.6-19.8,12.2c-2.8,2.8-4.7,6.6-5.6,9.4      c-4.7,2.8-9.4,7.5-14.1,11.3c-12.2,10.4-24.5,20.7-35.8,31.1c-0.9,0.9-1.9,1.9-2.8,2.8c-1.9-2.8-1.9-6.6-0.9-10.4      c1.9-2.8,3.8-3.8,5.6-5.6c12.2-10.4,23.5-19.8,34.8-30.1c11.3-9.4,22.6-19.8,33.9-29.2c13.2-11.3,26.3-22.6,39.5-33.9      c7.5-6.6,14.1-12.2,21.6-18.8C287,78.1,287.9,77.2,287,76.3z"></path>
				<path class="st3" d="M502.4,233.4c-14.1-6.6-30.1-11.3-45.2-14.1c-4.7-0.9-8.5-1.9-12.2-1.9c-5.6-3.8-11.3-7.5-16.9-10.4      c-17.9-10.4-38.6-17.9-59.3-20.7c-0.9,0-0.9,0-0.9-0.9c6.6-0.9,27.3,1.9,42.3,6.6c14.1,3.8,27.3,8.5,39.5,16      c-0.9-3.8-3.8-6.6-5.6-9.4c0-0.9-0.9-1.9-0.9-2.8c0.9-0.9,1.9,0,2.8,0c1.9,0.9,3.8,1.9,6.6,2.8c17.9,9.4,34.8,20.7,49.9,32.9      c0.9,0.9,0.9,0.9,0,0.9V233.4z"></path>
				<path class="st5" d="M287,76.3c0,0.9,1.9,0,1.9,0.9c-3.8,2.8-6.6,5.6-10.4,8.5c-6.6,5.6-12.2,10.4-18.8,16      c-8.5,7.5-17.9,15.1-27.3,22.6c-6.6,5.6-12.2,10.4-18.8,16c-7.5,6.6-15.1,12.2-22.6,18.8c-5.6,4.7-12.2,10.4-17.9,15.1      c-6.6,5.6-12.2,10.4-18.8,16l-6.6,5.6l1.9-8.5c-0.9-2.8,0.9-3.8,2.8-4.7c5.6-4.7,11.3-9.4,16.9-14.1      c13.2-11.3,26.3-22.6,39.5-33.9c11.3-9.4,22.6-19.8,33.9-29.2c10.4-9.4,21.6-17.9,32-27.3c0.9-0.9,2.8-1.9,0-2.8      c3.8-0.9,7.5,0,11.3-0.9L287,76.3z"></path>
				<path class="st6" d="M275.7,76.3c0.9,0,1.9,0,2.8,0c-1.9,2.8-5.6,5.6-8.5,7.5c-8.5,6.6-16,14.1-24.5,20.7      c-7.5,6.6-15.1,12.2-22.6,18.8s-15.1,13.2-22.6,18.8c-7.5,6.6-15.1,12.2-22.6,18.8c-7.5,6.6-15.1,13.2-22.6,18.8      c-1.9,1.9-5.6,2.8-5.6,6.6c-3.8,0.9-5.6,3.8-8.5,5.6c-4.7,2.8-8.5,7.5-12.2,11.3c-4.7,2.8-8.5,6.6-12.2,10.4      c-12.2,10.4-23.5,19.8-35.8,30.1c-1.9,0.9-2.8,2.8-4.7,3.8c-0.9,0.9-1.9,1.9-2.8,0.9c0-1.9,0-4.7,0.9-6.6      c5.6-3.8,10.4-8.5,16-13.2c15.1-12.2,29.2-24.5,43.3-36.7c14.1-12.2,29.2-24.5,43.3-36.7s28.2-24.5,42.3-35.8      c14.1-12.2,29.2-24.5,43.3-36.7c2.8-2.8,5.6-4.7,8.5-7.5h2.8L275.7,76.3z"></path>
				<path class="st7" d="M307.7,77.2c3.8,0,6.6,0.9,9.4,0.9c0.9,1.9-0.9,2.8-1.9,3.8c-3.8,3.8-8.5,6.6-12.2,10.4      c0-0.9-0.9-0.9-0.9-1.9c-0.9-0.9-1.9-0.9-1.9,0c-4.7,10.4-13.2,17.9-22.6,24.5c-10.4,7.5-20.7,13.2-32.9,17.9      c-0.9-0.9-0.9-0.9,0-1.9c1.9-1.9,4.7-3.8,7.5-6.6C270,109.2,287,95.1,304.9,80C305.8,79.1,306.7,78.1,307.7,77.2z"></path>
				<path class="st8" d="M307.7,77.2c0,0.9-0.9,1.9-1.9,2.8c-11.3,9.4-22.6,18.8-33.9,28.2c-8.5,7.5-16.9,15.1-25.4,21.6      c-0.9,0.9-1.9,0.9-1.9,2.8c-5.6,2.8-11.3,4.7-16.9,6.6c-1.9-0.9,0-0.9,0-1.9c3.8-2.8,6.6-5.6,10.4-8.5      c6.6-5.6,12.2-10.4,18.8-16c6.6-5.6,12.2-10.4,18.8-16c6.6-5.6,12.2-10.4,18.8-16c1.9-1.9,4.7-2.8,5.6-5.6      c2.8,0,4.7,0.9,7.5,0.9V77.2z"></path>
				<path class="st3" d="M264.4,150.6c6.6-2.8,13.2-5.6,18.8-10.4c0.9,0,0.9,0.9,0.9,0.9c-5.6,21.6-21.6,35.8-44.2,37.6      c-4.7,0-8.5,0.9-13.2,0.9c0.9-1.9,1.9-1.9,2.8-1.9c4.7-0.9,9.4-2.8,14.1-4.7c8.5-4.7,14.1-10.4,17.9-19.8c0-0.9,0.9-1.9,1.9-2.8      H264.4z"></path>
				<path class="st9" d="M264.4,150.6c-2.8,10.4-9.4,17.9-17.9,22.6c-5.6,2.8-12.2,4.7-18.8,6.6c-1.9-4.7,0-8.5,2.8-12.2      c2.8-3.8,7.5-6.6,12.2-8.5C250.3,156.2,256.9,153.4,264.4,150.6z"></path>
				<path class="st5" d="M74.3,250.3c3.8-0.9,5.6-4.7,8.5-6.6c9.4-7.5,17.9-15.1,27.3-23.5c4.7-3.8,9.4-8.5,14.1-12.2      c0.9-0.9,2.8-2.8,4.7-2.8c-4.7,6.6-9.4,12.2-13.2,19.8c-9.4,7.5-18.8,16-28.2,23.5c-4.7,3.8-8.5,7.5-13.2,11.3      c-0.9,0.9-0.9,0.9-2.8,0.9c0-3.8,0.9-6.6,1.9-10.4H74.3z"></path>
				<path class="st10" d="M111,266.3c-2.8,0-3.8,2.8-6.6,4.7c-8.5,6.6-16,13.2-23.5,19.8c-2.8,1.9-4.7,4.7-7.5,6.6      c-1.9,0.9-2.8,0.9-2.8-0.9c0-2.8,0-4.7,0-7.5c2.8-2.8,6.6-5.6,9.4-8.5c9.4-7.5,17.9-16,27.3-23.5c0.9-0.9,1.9-1.9,2.8-0.9      L111,266.3z"></path>
				<path class="st8" d="M150.5,206.1c0-0.9,0.9-1.9,1.9-2.8c7.5-6.6,15.1-12.2,21.6-18.8c5.6-4.7,12.2-10.4,17.9-15.1      c2.8-2.8,6.6-5.6,9.4-8.5c0.9-0.9,0.9-0.9,1.9,0c-0.9,2.8-1.9,5.6-0.9,8.5c-2.8,3.8-7.5,6.6-11.3,9.4      c-11.3,9.4-22.6,19.8-34.8,29.2c-0.9,0-0.9,0.9-0.9,0.9c-1.9,0-3.8-1.9-4.7-3.8V206.1z"></path>
				<path class="st4" d="M72.5,260.7c2.8-0.9,3.8-2.8,6.6-4.7c10.4-8.5,21.6-17.9,32-27.3c1.9-0.9,2.8-3.8,5.6-3.8      c-1.9,4.7-3.8,9.4-4.7,15.1c-1.9,0-2.8,0.9-3.8,2.8c-11.3,9.4-22.6,18.8-33.9,28.2c-0.9,0.9-0.9,0.9-2.8,0.9      C71.5,268.2,71.5,264.4,72.5,260.7z"></path>
				<path class="st7" d="M155.3,209.9c-0.9-0.9,0.9-1.9,0.9-2.8c9.4-8.5,18.8-16,28.2-23.5c5.6-4.7,10.4-9.4,16-13.2h0.9      c0,2.8,0,4.7,0.9,7.5c-2.8,3.8-7.5,6.6-11.3,9.4c-8.5,7.5-16.9,14.1-25.4,21.6c-0.9,0-0.9,0.9-0.9,1.9c-3.8,0.9-6.6,1.9-10.4,0      L155.3,209.9z"></path>
				<path class="st7" d="M110.1,256.9c-3.8,1.9-6.6,4.7-9.4,7.5c-8.5,6.6-16,13.2-23.5,19.8c-1.9,1.9-3.8,3.8-6.6,4.7      c0-2.8-0.9-6.6,0.9-9.4c12.2-10.4,24.5-20.7,36.7-31.1c0.9-0.9,1.9-1.9,2.8-0.9v9.4H110.1z"></path>
				<path class="st8" d="M110.1,247.5c-3.8,1.9-6.6,5.6-10.4,8.5c-7.5,6.6-16,13.2-23.5,19.8c-1.9,1.9-2.8,3.8-5.6,3.8      c0-2.8-0.9-4.7,0.9-7.5c7.5-6.6,15.1-13.2,22.6-19.8c4.7-4.7,10.4-8.5,16-13.2c1.9-0.9,0.9,0,0.9,0.9      C110.1,242.8,110.1,244.7,110.1,247.5z"></path>
				<path class="st11" d="M165.6,209.9c-0.9-0.9,0-0.9,0-1.9c7.5-5.6,14.1-12.2,21.6-17.9c4.7-3.8,8.5-7.5,13.2-11.3      c0.9-0.9,0.9-0.9,1.9-0.9l1.9,3.8c-0.9,1.9-3.8,3.8-5.6,5.6c-8.5,9.4-18.8,17.9-31.1,22.6c-0.9,0-1.9,0-1.9,0.9V209.9z"></path>
				<path class="st10" d="M303.9,92.3c0.9-3.8,4.7-4.7,6.6-6.6c1.9-2.8,5.6-3.8,7.5-7.5c2.8,0,5.6,0.9,7.5,0.9      c1.9,0,2.8,0.9,0.9,2.8c-3.8,2.8-6.6,5.6-10.4,8.5c-2.8,2.8-6.6,5.6-9.4,8.5C305.8,97,304.9,94.1,303.9,92.3z"></path>
				<path class="st12" d="M152.4,232.5c0.9,0.9-0.9,1.9-0.9,2.8c-0.9-3.8-2.8-4.7-6.6-4.7c-3.8,0.9-7.5,2.8-10.4,5.6      c-0.9,0.9-1.9,1.9-2.8,1.9c-0.9-0.9,0-1.9,0-1.9c1.9-5.6,5.6-9.4,9.4-12.2c0.9-0.9,1.9-0.9,3.8-1.9c5.6-0.9,8.5,0.9,7.5,6.6      c0,0.9,0,1.9,0,1.9V232.5z"></path>
				<path class="st13" d="M152.4,232.5c0-0.9,0-1.9,0-2.8c0-5.6-2.8-7.5-7.5-4.7c-5.6,2.8-9.4,7.5-12.2,13.2c-0.9,0-0.9,0-0.9-0.9      c1.9-6.6,5.6-12.2,11.3-16c1.9-0.9,2.8-1.9,4.7-1.9c2.8-0.9,5.6,0.9,5.6,3.8c0.9,2.8,0,6.6-1.9,9.4H152.4z"></path>
				<path class="st14" d="M199.5,186.4c-0.9-0.9,0-0.9,0-1.9c1.9-0.9,2.8-3.8,4.7-3.8c2.8,4.7,7.5,6.6,12.2,8.5      c0.9,0,1.9,0.9,3.8,0.9c-7.5,1.9-13.2,0.9-18.8-2.8C201.4,186.4,200.4,186.4,199.5,186.4z"></path>
				<path class="st15" d="M452.6,198.6c-1.9,0-3.8-1.9-5.6-2.8c-0.9,0-1.9-0.9-2.8-0.9c-0.9,0.9,0,0.9,0,1.9      c-0.9-0.9-1.9-2.8-2.8-4.7c3.8,1.9,7.5,2.8,10.4,5.6L452.6,198.6z"></path>
				<path class="st16" d="M502.4,233.4c0.9,0,0-0.9,0-0.9l3.8,1.9l1.9,2.8c-1.9-0.9-3.8-1.9-5.6-2.8V233.4z"></path>
				<path class="st17" d="M361.3,184.5c1.9,0,3.8,0,4.7,0C364.1,185.4,363.2,185.4,361.3,184.5z"></path>
				<path class="st18" d="M126.1,468.6c1.9,0,2.8,1.9,4.7,2.8v0.9C128.9,471.4,128,470.5,126.1,468.6z"></path>
				<path class="st19" d="M516.6,352l0.9,0.9c0,0.9,0,1.9-0.9,3.8V352z"></path>
				<path class="st20" d="M361.3,92.3c0,0.9,0.9,0.9,1.9,0.9l-2.8,0.9C360.4,93.2,361.3,92.3,361.3,92.3z"></path>
				<path class="st21" d="M131.7,237.2l0.9,0.9c0,0.9,0,0.9-0.9,1.9l-0.9,1.9C130.8,240,130.8,239,131.7,237.2z"></path>
				<path class="st22" d="M284.2,142.1c0-0.9,0-0.9-0.9-0.9c0-0.9,0.9-0.9,0.9-0.9C285.1,141.2,284.2,142.1,284.2,142.1z"></path>
				<path class="st23" d="M77.2,239c0.9-4.7,1.9-8.5,3.8-13.2c7.5-4.7,13.2-11.3,20.7-16.9c11.3-9.4,23.5-19.8,34.8-29.2      c10.4-9.4,20.7-17.9,32-27.3s22.6-19.8,34.8-29.2c10.4-8.5,20.7-17.9,31.1-26.3c7.5-6.6,15.1-12.2,21.6-18.8      c3.8-0.9,7.5-0.9,11.3-0.9h0.9c0.9,1.9,0,1.9-0.9,2.8c-10.4,8.5-19.8,16.9-29.2,25.4c-10.4,8.5-20.7,17.9-32,27.3      c-9.4,8.5-19.8,16.9-29.2,24.5c-12.2,10.4-23.5,19.8-35.8,30.1c-15.1,12.2-29.2,25.4-44.2,37.6c-5.6,4.7-11.3,9.4-16.9,14.1      C79,240,78.1,241.9,77.2,239z"></path>
				<path class="st24" d="M255,78.1c-0.9,3.8-4.7,4.7-6.6,6.6c-7.5,6.6-16,13.2-23.5,19.8c-8.5,7.5-17.9,15.1-26.3,22.6      c-7.5,6.6-15.1,13.2-22.6,19.8c-7.5,6.6-15.1,12.2-22.6,18.8c-7.5,6.6-15.1,13.2-22.6,18.8c-7.5,6.6-15.1,12.2-22.6,18.8      c-6.6,5.6-12.2,10.4-17.9,16c-2.8,1.9-4.7,3.8-7.5,6.6c-0.9,0-0.9,0.9-1.9,0c0.9-4.7,1.9-8.5,4.7-12.2      c5.6-3.8,10.4-8.5,15.1-12.2c11.3-9.4,23.5-19.8,34.8-29.2c12.2-10.4,23.5-20.7,35.8-31.1c10.4-8.5,19.8-16.9,29.2-25.4      c13.2-11.3,25.4-21.6,38.6-32.9c0.9-0.9,1.9-1.9,1.9-2.8c4.7-1.9,9.4-1.9,14.1-2.8V78.1z"></path>
				<path class="st25" d="M241.8,81c1.9,0.9,0,0.9,0,1.9c-3.8,2.8-6.6,6.6-10.4,9.4c-6.6,5.6-12.2,10.4-18.8,16      c-9.4,7.5-17.9,15.1-27.3,22.6c-7.5,6.6-15.1,13.2-22.6,18.8c-7.5,6.6-15.1,13.2-23.5,19.8c-7.5,6.6-15.1,12.2-22.6,18.8      c-7.5,6.6-15.1,12.2-22.6,18.8c-2.8,1.9-5.6,4.7-8.5,6.6c-0.9,0-0.9,1.9-1.9,0c0.9-3.8,2.8-7.5,4.7-11.3      c10.4-8.5,19.8-16.9,30.1-25.4s20.7-17.9,31.1-26.3c10.4-8.5,19.8-16.9,30.1-25.4c10.4-8.5,20.7-17.9,31.1-27.3      c5.6-4.7,10.4-9.4,16-14.1c3.8-1.9,8.5-1.9,12.2-2.8H241.8z"></path>
				<path class="st26" d="M229.6,83.8c-3.8,4.7-9.4,8.5-14.1,13.2c-6.6,5.6-12.2,10.4-18.8,16c-6.6,4.7-12.2,10.4-18.8,16      c-6.6,5.6-12.2,10.4-17.9,16c-6.6,5.6-12.2,10.4-18.8,16c-5.6,4.7-12.2,10.4-17.9,15.1c-7.5,6.6-15.1,13.2-23.5,19.8      c-2.8,1.9-5.6,4.7-8.5,6.6c-0.9,0.9-0.9,0.9-1.9,0.9c1.9-4.7,4.7-10.4,7.5-15.1c14.1-11.3,27.3-23.5,41.4-34.8      c16-13.2,32-27.3,48-40.5c8.5-7.5,17.9-15.1,27.3-23.5c4.7-1.9,10.4-3.8,16-4.7V83.8z"></path>
				<path class="st27" d="M213.6,88.5c0.9,0.9-0.9,0.9-0.9,1.9c-6.6,5.6-14.1,12.2-20.7,17.9c-5.6,4.7-12.2,10.4-17.9,15.1      c-7.5,6.6-15.1,13.2-22.6,18.8c-6.6,5.6-12.2,10.4-17.9,16c-7.5,6.6-15.1,13.2-22.6,19.8c-2.8,2.8-6.6,5.6-9.4,8.5      c-0.9,0.9-1.9,0.9-2.8,1.9c3.8-7.5,8.5-15.1,13.2-21.6c4.7-3.8,9.4-7.5,13.2-11.3c11.3-10.4,23.5-19.8,34.8-30.1      c9.4-7.5,17.9-15.1,27.3-22.6c0.9-0.9,2.8-1.9,3.8-3.8C198.5,94.1,206.1,91.3,213.6,88.5z"></path>
				<path class="st28" d="M342.5,362.3c-6.6,4.7-12.2,10.4-20.7,14.1c2.8-4.7,3.8-9.4,5.6-15.1c4.7-21.6,0-40.5-12.2-58.3      c-2.8-4.7-7.5-7.5-11.3-11.3c-0.9-0.9-0.9-0.9-1.9-0.9c-0.9-0.9-1.9-1.9-2.8-2.8c0.9-0.9,0.9,0,1.9,0      c15.1,8.5,27.3,19.8,34.8,34.8c3.8,7.5,5.6,16,6.6,24.5C343.4,352,342.5,357.6,342.5,362.3z"></path>
				<path class="st29" d="M77.2,239c2.8,0.9,2.8-1.9,4.7-2.8c12.2-10.4,24.5-20.7,36.7-31.1c11.3-10.4,23.5-19.8,34.8-30.1      c13.2-11.3,26.3-21.6,38.6-32.9c11.3-10.4,23.5-19.8,34.8-30.1c12.2-10.4,25.4-21.6,37.6-32c0.9-0.9,2.8-1.9,3.8-3.8      c0.9-0.9,1.9,0,2.8-0.9h2.8c-0.9,2.8-3.8,4.7-6.6,6.6c-6.6,5.6-13.2,11.3-19.8,16.9c-7.5,6.6-15.1,12.2-22.6,18.8      c-5.6,4.7-12.2,10.4-17.9,15.1c-8.5,7.5-17.9,15.1-26.3,22.6c-5.6,4.7-12.2,10.4-17.9,15.1c-7.5,6.6-15.1,13.2-23.5,19.8      c-5.6,4.7-12.2,10.4-17.9,15.1c-6.6,5.6-12.2,10.4-18.8,16c-6.6,5.6-12.2,10.4-18.8,16c-1.9,1.9-4.7,3.8-6.6,5.6      c-0.9,0-0.9,0.9-1.9,0c0-1.9,0-2.8,0.9-4.7L77.2,239z"></path>
				<path class="st30" d="M191,98.8c-0.9,2.8-3.8,3.8-4.7,5.6c-6.6,5.6-13.2,11.3-18.8,16c-7.5,6.6-15.1,12.2-22.6,18.8      c-5.6,4.7-12.2,10.4-17.9,15.1c-4.7,3.8-8.5,7.5-13.2,11.3c-0.9,0-0.9,0.9-1.9,0c2.8-4.7,6.6-9.4,10.4-14.1      c14.1-16.9,31.1-31.1,49.9-43.3c6.6-3.8,12.2-7.5,19.8-10.4L191,98.8z"></path>
				<path class="st8" d="M297.3,76.3c-1.9,0-3.8,0.9-6.6-0.9C292.6,75.3,294.5,74.4,297.3,76.3z"></path>
				<path class="st6" d="M270,76.3c-0.9,0.9-1.9,0.9-2.8,0.9h-0.9C267.2,76.3,269.1,77.2,270,76.3z"></path>
				<path class="st28" d="M211.7,503.4c19.8,0.9,40.5-1.9,58.3-9.4c17.9-6.6,35.8-16,50.8-28.2c15.1-12.2,27.3-25.4,35.8-43.3      c4.7-9.4,7.5-18.8,8.5-29.2c0.9-9.4-0.9-17.9-2.8-26.3c0-1.9,1.9-2.8,3.8-4.7c4.7-5.6,7.5-12.2,9.4-18.8c0-0.9,0.9-1.9,0.9-2.8      c2.8,5.6,4.7,11.3,6.6,16.9c1.9,8.5,3.8,16.9,2.8,25.4c-0.9,15.1-5.6,30.1-13.2,43.3c-7.5,13.2-16.9,24.5-28.2,34.8      c-9.4,8.5-20.7,16-32,22.6c-14.1,7.5-29.2,13.2-44.2,16.9c-9.4,1.9-19.8,3.8-29.2,4.7c-4.7,0-9.4,0.9-14.1,0      c-3.8,0-7.5,0-11.3-0.9L211.7,503.4z"></path>
			</g>
		</g>
		<path class="st0" d="M271,1c142.1-8.5,268.2,88.4,297.3,226.8c8.5,37.6,8.5,77.2,0.9,115.7c-18.8,94.1-82.8,173.1-171.2,209.8    c-60.2,25.4-129.8,29.2-191.9,10.4c-85.6-25.4-155.3-90.3-187.2-174.1c-22.6-60.2-24.5-128-4.7-189.1C49.9,86.6,152.4,7.6,271.9,1    H271z"></path>
		<path class="st2" d="M300.2,288c-10.4-5.6-21.6-9.4-32.9-12.2c-15.1-3.8-30.1-4.7-45.2-3.8c-10.4,0.9-21.6,1.9-32,6.6    c-0.9,0.9-2.8,0.9-3.8,1.9c-8.5,5.6-9.4,12.2-3.8,20.7c0.9,1.9,2.8,2.8,3.8,4.7c-5.6,0-10.4-0.9-14.1-1.9    c-12.2-2.8-23.5-6.6-33.9-15.1c-4.7-3.8-8.5-6.6-11.3-12.2c0.9-1.9,2.8-3.8,5.6-4.7c3.8-1.9,6.6-4.7,10.4-6.6    c17.9-8.5,35.8-13.2,55.5-15.1c7.5-0.9,15.1-1.9,22.6-0.9c22.6,0.9,45.2,4.7,66.8,11.3c5.6,1.9,11.3,3.8,16.9,5.6    c0-1.9-0.9-2.8-1.9-3.8c-1.9-3.8-4.7-7.5-7.5-11.3c-0.9-0.9-2.8-2.8-2.8-4.7c2.8,0.9,6.6,0.9,9.4,1.9c0.9,0,1.9,0.9,1.9,0    c0.9-0.9,0-1.9-0.9-1.9c-4.7-6.6-10.4-12.2-16-17.9c2.8-1.9,6.6,0,9.4,0c32,3.8,61.2,15.1,86.6,34.8c33.9,26.3,55.5,60.2,64,101.6    c2.8,14.1,3.8,28.2,2.8,42.3c-1.9,24.5-9.4,47-24.5,67.7c-0.9,0.9-1.9,2.8-2.8,3.8c-2.8,4.7-8.5,8.5-12.2,12.2    c-24.5,19.8-52.7,30.1-82.8,34.8c-23.5,3.8-48,3.8-71.5,0.9c-37.6-4.7-73.4-17.9-104.4-39.5c-7.5-4.7-15.1-10.4-21.6-16.9v-0.9    l0,0c0.9-0.9,1.9,0.9,2.8,0.9c16,12.2,33.9,20.7,53.6,25.4c6.6,1.9,13.2,2.8,19.8,3.8c1.9,0.9,2.8,0,4.7,0.9h0.9    c15.1,1.9,30.1,0.9,44.2-1.9c32-5.6,61.2-18.8,85.6-41.4c16.9-15.1,30.1-32,36.7-53.6c6.6-21.6,5.6-42.3-3.8-63    c-1.9,9.4-6.6,16.9-13.2,24.5c-6.6,6.6-13.2,13.2-21.6,16.9c-0.9,0.9-1.9,1.9-2.8,0.9s0-1.9,0-2.8c1.9-6.6,2.8-13.2,3.8-19.8    c2.8-28.2-8.5-49.9-30.1-66.8c-3.8-2.8-7.5-5.6-11.3-7.5L300.2,288z"></path>
		<path class="st3" d="M207,503.4c-8.5-0.9-16-2.8-24.5-4.7c-15.1-4.7-29.2-11.3-42.3-19.8c-2.8-1.9-5.6-4.7-9.4-6.6    c-1.9,0-2.8-1.9-4.7-2.8c-32.9-29.2-55.5-65.9-68.7-107.3c-6.6-20.7-9.4-41.4-10.4-63c0-1.9,0-2.8,0-5.6c1.9,3.8,2.8,6.6,3.8,9.4    c12.2,26.3,27.3,49.9,48,69.6c22.6,20.7,48,34.8,79,40.5c35.8,5.6,69.6,0,99.7-19.8c15.1-9.4,28.2-21.6,34.8-38.6    c8.5-20.7,5.6-39.5-7.5-57.4c-0.9-1.9-2.8-2.8-3.8-4.7c1.9-0.9,2.8,0,3.8,0.9c7.5,6.6,14.1,15.1,18.8,24.5    c3.8,9.4,6.6,18.8,6.6,29.2s-1.9,19.8-6.6,29.2c0.9,0,1.9,0,2.8-0.9c4.7-2.8,8.5-5.6,12.2-8.5c0.9-0.9,1.9-2.8,3.8-1.9    c-0.9,7.5-2.8,15.1-4.7,22.6c4.7-2.8,9.4-5.6,14.1-9.4c3.8-2.8,6.6-6.6,10.4-9.4c1.9,0.9,1.9,1.9,1.9,3.8    c5.6,20.7,1.9,39.5-8.5,57.4c-12.2,21.6-30.1,38.6-50.8,51.8c-16.9,10.4-35.8,17.9-55.5,22.6c-12.2,2.8-24.5,3.8-37.6,1.9l0,0    c-1.9-0.9-3.8,0-4.7-0.9V503.4z"></path>
		<path class="st1" d="M516.6,352c-0.9-23.5-6.6-46.1-16.9-67.7c-6.6-14.1-15.1-26.3-24.5-38.6c-8.5-10.4-18.8-19.8-30.1-28.2    c0.9-0.9,1.9-0.9,3.8-0.9c15.1,1.9,30.1,5.6,44.2,10.4c3.8,0.9,6.6,2.8,10.4,4.7c0.9,0.9,1.9,0.9,3.8,1.9c0,0,0,0.9,0.9,0.9v-0.9    c-9.4-12.2-21.6-23.5-33.9-32.9c-15.1-12.2-31.1-21.6-48-30.1c-23.5-11.3-48.9-18.8-75.3-22.6c-1.9,0-4.7,0-6.6-0.9    c0-1.9,0.9-1.9,1.9-2.8c15.1-13.2,27.3-28.2,36.7-46.1c2.8-5.6,4.7-11.3,6.6-16.9c0.9-1.9,0.9-3.8,2.8-4.7    c27.3,13.2,51.8,32,72.5,53.6c54.6,60.2,75.3,143,54.6,221.1c-0.9,0-0.9,0-0.9-0.9L516.6,352z"></path>
		<path class="st3" d="M423.4,480.9c0-2.8,1.9-3.8,2.8-5.6c11.3-16,17.9-33.9,21.6-52.7c1.9-12.2,2.8-23.5,1.9-35.8    c-0.9-17.9-5.6-35.8-13.2-52.7c-5.6-12.2-12.2-24.5-19.8-34.8c-8.5-11.3-18.8-21.6-29.2-31.1c-16.9-14.1-36.7-24.5-57.4-31.1    c-11.3-3.8-22.6-5.6-34.8-7.5c-1.9,0-3.8-0.9-6.6-0.9c-7.5-5.6-15.1-10.4-23.5-15.1v-0.9c2.8,0,6.6,0,9.4,0    c43.3-0.9,82.8,9.4,116.7,35.8c35.8,27.3,58.3,63,66.8,107.3c7.5,37.6,1.9,73.4-19.8,106.3c-3.8,6.6-8.5,13.2-14.1,17.9    L423.4,480.9z"></path>
		<path class="st3" d="M390.5,77.2c-4.7,13.2-9.4,25.4-17.9,37.6c-7.5,11.3-16.9,21.6-28.2,31.1c-0.9,0.9-0.9,0.9-1.9,1.9    c-3.8,1.9-6.6,4.7-10.4,7.5c-12.2,8.5-26.3,15.1-40.5,20.7h-0.9c-0.9-0.9,0-0.9,0.9-1.9c8.5-7.5,13.2-16.9,16-27.3    c0-0.9,0.9-2.8,2.8-2.8c25.4-10.4,45.2-26.3,61.2-47c1.9-1.9,2.8-3.8,4.7-6.6c-4.7,0-8.5,2.8-13.2,2.8c-0.9,0-1.9,0.9-1.9-0.9    c15.1-17.9,27.3-39.5,33.9-62.1c0-1.9,0-3.8,1.9-3.8l0,0l0,0c0,16-2.8,32-6.6,48c0,0.9,0,1.9-0.9,2.8H390.5z"></path>
		<path class="st3" d="M293.6,247.5c4.7,5.6,9.4,12.2,13.2,18.8c0,0.9,0.9,0.9,0,1.9c-0.9,0.9-0.9,0-1.9,0    c-16.9-6.6-33.9-11.3-50.8-14.1c-8.5-1.9-17.9-1.9-26.3-2.8c-8.5-0.9-16,0-24.5,0c-17.9,1.9-35.8,5.6-53.6,13.2    c-5.6,1.9-10.4,4.7-15.1,8.5c-0.9,0-0.9,0.9-0.9,0c15.1-10.4,31.1-18.8,48-24.5c23.5-7.5,48-8.5,73.4-6.6    c12.2,0.9,25.4,2.8,37.6,5.6c0.9,0,1.9,0,1.9,0.9L293.6,247.5z"></path>
		<path class="st3" d="M502.4,233.4c-14.1-6.6-30.1-11.3-45.2-14.1c-4.7-0.9-8.5-1.9-12.2-1.9c-5.6-3.8-11.3-7.5-16.9-10.4    c-17.9-10.4-38.6-17.9-59.3-20.7c-0.9,0-0.9,0-0.9-0.9c6.6-0.9,27.3,1.9,42.3,6.6c14.1,3.8,27.3,8.5,39.5,16    c-0.9-3.8-3.8-6.6-5.6-9.4c0-0.9-0.9-1.9-0.9-2.8c0.9-0.9,1.9,0,2.8,0c1.9,0.9,3.8,1.9,6.6,2.8c17.9,9.4,34.8,20.7,49.9,32.9    c0.9,0.9,0.9,0.9,0,0.9V233.4z"></path>
		<path class="st3" d="M264.4,150.6c6.6-2.8,13.2-5.6,18.8-10.4c0.9,0,0.9,0.9,0.9,0.9c-5.6,21.6-21.6,35.8-44.2,37.6    c-4.7,0-8.5,0.9-13.2,0.9c0.9-1.9,1.9-1.9,2.8-1.9c4.7-0.9,9.4-2.8,14.1-4.7c8.5-4.7,14.1-10.4,17.9-19.8c0-0.9,0.9-1.9,1.9-2.8    H264.4z"></path>
		<path class="st9" d="M264.4,150.6c-2.8,10.4-9.4,17.9-17.9,22.6c-5.6,2.8-12.2,4.7-18.8,6.6c-1.9-4.7,0-8.5,2.8-12.2    c2.8-3.8,7.5-6.6,12.2-8.5C250.3,156.2,256.9,153.4,264.4,150.6z"></path>
		<path class="st12" d="M152.4,232.5c0.9,0.9-0.9,1.9-0.9,2.8c-0.9-3.8-2.8-4.7-6.6-4.7c-3.8,0.9-7.5,2.8-10.4,5.6    c-0.9,0.9-1.9,1.9-2.8,1.9c-0.9-0.9,0-1.9,0-1.9c1.9-5.6,5.6-9.4,9.4-12.2c0.9-0.9,1.9-0.9,3.8-1.9c5.6-0.9,8.5,0.9,7.5,6.6    c0,0.9,0,1.9,0,1.9V232.5z"></path>
		<path class="st13" d="M152.4,232.5c0-0.9,0-1.9,0-2.8c0-5.6-2.8-7.5-7.5-4.7c-5.6,2.8-9.4,7.5-12.2,13.2c-0.9,0-0.9,0-0.9-0.9    c1.9-6.6,5.6-12.2,11.3-16c1.9-0.9,2.8-1.9,4.7-1.9c2.8-0.9,5.6,0.9,5.6,3.8c0.9,2.8,0,6.6-1.9,9.4H152.4z"></path>
		<path class="st15" d="M452.6,198.6c-1.9,0-3.8-1.9-5.6-2.8c-0.9,0-1.9-0.9-2.8-0.9c-0.9,0.9,0,0.9,0,1.9c-0.9-0.9-1.9-2.8-2.8-4.7    c3.8,1.9,7.5,2.8,10.4,5.6L452.6,198.6z"></path>
		<path class="st16" d="M502.4,233.4c0.9,0,0-0.9,0-0.9l3.8,1.9l1.9,2.8c-1.9-0.9-3.8-1.9-5.6-2.8V233.4z"></path>
		<path class="st18" d="M126.1,468.6c1.9,0,2.8,1.9,4.7,2.8v0.9C128.9,471.4,128,470.5,126.1,468.6z"></path>
		<path class="st19" d="M516.6,352l0.9,0.9c0,0.9,0,1.9-0.9,3.8V352z"></path>
		<path class="st20" d="M361.3,92.3c0,0.9,0.9,0.9,1.9,0.9l-2.8,0.9C360.4,93.2,361.3,92.3,361.3,92.3z"></path>
		<path class="st21" d="M131.7,237.2l0.9,0.9c0,0.9,0,0.9-0.9,1.9l-0.9,1.9C130.8,240,130.8,239,131.7,237.2z"></path>
		<path class="st22" d="M284.2,142.1c0-0.9,0-0.9-0.9-0.9c0-0.9,0.9-0.9,0.9-0.9C285.1,141.2,284.2,142.1,284.2,142.1z"></path>
		<path class="st28" d="M342.5,362.3c-6.6,4.7-12.2,10.4-20.7,14.1c2.8-4.7,3.8-9.4,5.6-15.1c4.7-21.6,0-40.5-12.2-58.3    c-2.8-4.7-7.5-7.5-11.3-11.3c-0.9-0.9-0.9-0.9-1.9-0.9c-0.9-0.9-1.9-1.9-2.8-2.8c0.9-0.9,0.9,0,1.9,0    c15.1,8.5,27.3,19.8,34.8,34.8c3.8,7.5,5.6,16,6.6,24.5C343.4,352,342.5,357.6,342.5,362.3z"></path>
		<path class="st28" d="M211.7,503.4c19.8,0.9,40.5-1.9,58.3-9.4c17.9-6.6,35.8-16,50.8-28.2c15.1-12.2,27.3-25.4,35.8-43.3    c4.7-9.4,7.5-18.8,8.5-29.2c0.9-9.4-0.9-17.9-2.8-26.3c0-1.9,1.9-2.8,3.8-4.7c4.7-5.6,7.5-12.2,9.4-18.8c0-0.9,0.9-1.9,0.9-2.8    c2.8,5.6,4.7,11.3,6.6,16.9c1.9,8.5,3.8,16.9,2.8,25.4c-0.9,15.1-5.6,30.1-13.2,43.3c-7.5,13.2-16.9,24.5-28.2,34.8    c-9.4,8.5-20.7,16-32,22.6c-14.1,7.5-29.2,13.2-44.2,16.9c-9.4,1.9-19.8,3.8-29.2,4.7c-4.7,0-9.4,0.9-14.1,0    c-3.8,0-7.5,0-11.3-0.9L211.7,503.4z"></path>
		<path class="st8" d="M203.2,170.4L203.2,170.4L203.2,170.4c0,12.2,6.6,16.9,18.8,19.8c-15.1,4.7-19.8-5.6-21.6-3.8    c-6.6,7.5-31.1,29.2-44.2,23.5c-9.4-1.9-5.6-16-4.7-21.6l0,0l0,0c-3.8,0.9-5.6,3.8-9.4,5.6c-29.2,20.7-35.8,53.6-28.2,88.4    c0.9,2.8,1.9,2.8,3.8,0.9c2.8-2.8,6.6-5.6,9.4-7.5c0.9,0,1.9,0.9,1.9,1.9c9.4,12.2,21.6,19.8,36.7,23.5c6.6,1.9,12.2,1.9,18.8,2.8    c-1.9-2.8-1.9-3.8-3.8-6.6c-2.8-5.6-2.8-11.3,0.9-15.1c4.7-4.7,12.2-6.6,18.8-8.5c13.2-3.8,27.3-3.8,41.4-2.8    c11.3,0.9,22.6,3.8,32.9,6.6c9.4,2.8,17.9,5.6,25.4,10.4c0.9,0.9,1.9,1.9,2.8,2.8c10.4,11.3,16,23.5,16.9,38.6    c0,10.4-2.8,20.7-7.5,29.2c-9.4,16-23.5,28.2-39.5,37.6c-16.9,9.4-34.8,15.1-53.6,16.9c-33.9,3.8-64.9-3.8-94.1-21.6    c-23.5-15.1-42.3-35.8-57.4-59.3C61.2,320.9,48,298.3,47,290.8c0-3.8,0.9-2.8,0.9-11.3c0.9-16.9,3.8-33.9,7.5-49.9    C75.3,156.2,128,97,198.5,68.7c21.6-8.5,43.3-14.1,65.9-16c35.8-2.8,70.6,0.9,104.4,13.2c-5.6,9.4-34.8,35.8-57.4,50.8    c-3.8-17.9-4.7-16-10.4-28.2c0,1.9-15.1,21.6-32.9,32.9c-18.8,11.3-66.8,19.8-66.8,47L203.2,170.4z"></path>
		
			<linearGradient id="SVGID_1_" gradientUnits="userSpaceOnUse" x1="159.6317" y1="213.6411" x2="156.6317" y2="482.6411" gradientTransform="matrix(0.9409 0 0 -0.9409 56.2529 540.7439)">
			<stop offset="0" style="stop-color:#5591CD"></stop>
			<stop offset="1" style="stop-color:#5DA0D3"></stop>
		</linearGradient>
		<path class="st31" d="M204.2,182.6L204.2,182.6L204.2,182.6c0,2.8,0,5.6,0.9,7.5c-2.8-1.9-3.8-3.8-4.7-2.8    c-5.6,6.6-25.4,24.5-38.6,24.5c-1.9-3.8,0-10.4,0.9-14.1l0,0l0,0c-2.8,0-4.7,2.8-7.5,4.7c-1.9,0.9-2.8,2.8-4.7,3.8l0,0    c-1.9-4.7,0.9-12.2,1.9-16.9l0,0l0,0c-3.8,0.9-5.6,3.8-9.4,5.6c-29.2,20.7-35.8,53.6-28.2,88.4c-3.8,32.9-39.5,64-44.2,53.6    c-0.9-0.9,8.5-52.7,7.5-53.6c0,0.9,0.9,2.8,0,3.8c0-4.7,0-10.4,0-15.1c0.9-14.1,2.8-27.3,6.6-40.5c16-59.3,59.3-108.2,116.7-130.8    c16.9-6.6,35.8-11.3,53.6-13.2c29.2-2.8,57.4,0.9,84.7,10.4c-8.5,7.5-18.8,15.1-27.3,20.7c-3.8-17.9-4.7-16-10.4-28.2    c0,1.9-15.1,21.6-32.9,32.9c-18.8,11.3-66.8,19.8-66.8,47l0,0l0,0c0,2.8,0,5.6,0.9,8.5l0,0c0,0.9,0,1.9,0,3.8H204.2z M130.8,270.1    v0.9V270.1z M131.7,273.9v0.9V273.9z"></path>
	</g>
	<path d="M874.1,451.7v5.6c-26.3,0-53.6-7.5-80.9-22.6c-23.5-12.2-41.4-27.3-53.6-44.2c-21.6-5.6-39.5-19.8-53.6-40.5   c-14.1-21.6-21.6-44.2-21.6-67.7c0-31.1,10.4-56.5,30.1-78.1c19.8-21.6,45.2-32,75.3-32s54.6,10.4,75.3,32   c20.7,21.6,30.1,47,30.1,78.1c0,25.4-7.5,48-22.6,69.6s-34.8,34.8-57.4,39.5c4.7,15.1,14.1,28.2,29.2,40.5   c16,13.2,32.9,18.8,49.9,18.8V451.7z M769.7,384.9c21.6-2.8,38.6-13.2,50.8-31.1c12.2-17.9,17.9-41.4,17.9-71.5   s-5.6-53.6-17.9-71.5c-12.2-18.8-29.2-28.2-50.8-28.2s-38.6,9.4-50.8,27.3c-12.2,17.9-17.9,42.3-17.9,72.5s5.6,54.6,16.9,73.4   C730.1,375.5,747.1,384.9,769.7,384.9z M916.4,315.3V211.8c0-11.3-1.9-18.8-6.6-22.6c-4.7-3.8-12.2-5.6-23.5-5.6v-5.6h93.2v5.6   c-11.3,0-18.8,1.9-23.5,5.6s-6.6,11.3-6.6,22.6v104.4c0,18.8,5.6,33.9,16.9,47c11.3,13.2,25.4,18.8,43.3,18.8s32.9-6.6,43.3-18.8   c11.3-12.2,16-28.2,16-47V211.8c0-11.3-1.9-18.8-6.6-22.6s-12.2-5.6-23.5-5.6v-5.6h74.3v5.6c-11.3,0-18.8,1.9-23.5,5.6   s-6.6,11.3-6.6,22.6v104.4c0,23.5-6.6,42.3-19.8,56.5c-15.1,16-36.7,23.5-64.9,23.5c-26.3,0-46.1-7.5-61.2-23.5   C923,357.6,916.4,338.8,916.4,315.3z M1154.5,356.7V210.8c0-11.3-1.9-18.8-6.6-22.6c-4.7-3.8-12.2-5.6-23.5-5.6v-5.6h93.2v5.6   c-11.3,0-18.8,1.9-23.5,5.6c-4.7,3.8-6.6,11.3-6.6,22.6v145.8c0,11.3,1.9,18.8,6.6,22.6c4.7,3.8,12.2,5.6,23.5,5.6v5.6h-93.2v-5.6   c11.3,0,18.8-1.9,23.5-5.6C1152.6,375.5,1154.5,367.9,1154.5,356.7z M1418,172.2l5.6,72.5h-7.5c-1.9-16.9-9.4-31.1-21.6-43.3   s-26.3-17.9-42.3-17.9c-23.5,0-42.3,10.4-57.4,30.1c-6.6,9.4-12.2,19.8-16,32.9c-3.8,13.2-5.6,26.3-5.6,41.4   c0,29.2,8.5,52.7,24.5,70.6c15.1,16.9,35.8,25.4,59.3,25.4c13.2,0,25.4-4.7,37.6-13.2c11.3-7.5,20.7-18.8,29.2-32l5.6,2.8   c-8.5,16-19.8,28.2-33.9,38.6c-15.1,11.3-32,16.9-49.9,16.9c-32,0-58.3-10.4-79-32c-20.7-20.7-32-47-32-77.2   c0-31.1,11.3-58.3,32.9-80.9c22.6-22.6,48-33.9,79-33.9c12.2,0,22.6,1.9,31.1,4.7c7.5,3.8,16,6.6,23.5,10.4c1.9,0,4.7-1.9,6.6-3.8   c1.9-2.8,3.8-6.6,4.7-10.4h5.6V172.2z M1475.3,356.7V210.8c0-11.3-1.9-18.8-6.6-22.6c-4.7-3.8-12.2-5.6-23.5-5.6v-5.6h93.2v5.6   c-11.3,0-18.8,1.9-23.5,5.6c-4.7,3.8-6.6,11.3-6.6,22.6V271l67.7-61.2c3.8-3.8,6.6-6.6,9.4-9.4c3.8-3.8,5.6-7.5,5.6-10.4   c0-2.8-1.9-4.7-4.7-5.6c-3.8-0.9-8.5-1.9-15.1-1.9v-5.6h79v5.6c-9.4,0-17.9,1.9-25.4,5.6c-7.5,3.8-16,10.4-26.3,19.8l-63,59.3   l86.6,86.6c14.1,14.1,24.5,22.6,31.1,26.3s15.1,5.6,26.3,5.6v5.6h-99.7v-5.6c5.6,0,9.4-0.9,11.3-2.8c1.9-1.9,3.8-4.7,3.8-8.5   s-3.8-9.4-12.2-17.9l-73.4-73.4v74.3c0,11.3,1.9,18.8,6.6,22.6c4.7,3.8,12.2,5.6,23.5,5.6v5.6h-93.2v-5.6c11.3,0,18.8-1.9,23.5-5.6   c4.7-3.8,6.6-11.3,6.6-22.6L1475.3,356.7z M1820.7,246.6h-5.6c-1.9-19.8-7.5-34.8-17.9-46.1c-10.3-11.3-23.5-16-40.5-16   c-11.3,0-20.7,3.8-27.3,10.4c-7.5,7.5-10.3,15.1-10.3,23.5c0,12.2,10.3,24.5,30.1,36.7c18.8,11.3,37.6,21.6,56.5,32   c20.7,14.1,30.1,30.1,30.1,47c0,17.9-6.6,32-18.8,43.3c-12.2,11.3-30.1,16.9-51.8,16.9c-6.6,0-12.2-0.9-17.9-1.9   c-5.6-0.9-10.3-2.8-14.1-3.8c-3.8-1.9-7.5-2.8-11.3-4.7c-3.8-0.9-6.6-1.9-9.4-1.9c-2.8,0-4.7,0.9-6.6,2.8c-1.9,1.9-2.8,4.7-3.8,8.5   h-5.6v-72.5h5.6c0,18.8,6.6,32.9,20.7,44.2c12.2,10.4,27.3,16,45.2,16c11.3,0,20.7-2.8,28.2-9.4c8.5-6.6,12.2-15.1,12.2-25.4   c0-14.1-9.4-27.3-29.2-39.5c-18.8-10.4-36.7-20.7-54.6-31.1c-19.8-14.1-29.2-30.1-29.2-48c0-16,5.6-30.1,17.9-40.5   c12.2-11.3,27.3-16,45.2-16c5.6,0,10.4,0.9,15.1,1.9c0.9,0,4.7,0.9,12.2,3.8c2.8,0.9,5.6,1.9,10.3,3.8s7.5,2.8,10.4,2.8   c2.8,0,5.6-0.9,7.5-3.8c2.8-2.8,3.8-5.6,3.8-7.5h5.6v74.3H1820.7z M1841.4,176.9h79v5.6c-7.5,0-12.2,0.9-16,3.8   c-3.8,1.9-4.7,4.7-4.7,8.5c0,2.8,0,5.6,0.9,7.5s1.9,6.6,4.7,13.2l44.2,123.3l35.8-99.7l-8.5-23.5c-3.8-12.2-8.5-20.7-11.3-24.5   c-4.7-5.6-12.2-8.5-21.6-8.5v-5.6h82.8v5.6c-7.5,0-12.2,0.9-16,3.8c-3.8,1.9-5.6,4.7-5.6,8.5c0,5.6,1.9,12.2,4.7,21.6l42.3,123.3   l43.3-124.2c1.9-6.6,3.8-12.2,3.8-16.9c0-10.4-7.5-15.1-22.6-15.1v-5.6h63v5.6c-10.3,0-16.9,4.7-21.6,13.2   c-1.9,3.8-4.7,10.4-7.5,19.8l-61.2,179.7h-7.5l-48.9-135.5l-48,135.5h-7.5l-64-178.8c-4.7-13.2-8.5-21.6-11.3-25.4   c-4.7-5.6-10.3-8.5-18.8-8.5v-5.6L1841.4,176.9z M2206.4,172.2h7.5l78.1,184.4c4.7,11.3,9.4,17.9,13.2,21.6   c4.7,4.7,12.2,6.6,22.6,6.6v5.6h-87.5v-5.6c15.1,0,23.5-4.7,23.5-14.1c0-3.8-0.9-8.5-3.8-14.1l-16-37.6h-82.8l-16.9,37.6   c-2.8,5.6-3.8,10.4-3.8,14.1c0,4.7,1.9,7.5,5.6,10.4c3.8,2.8,10.4,3.8,18.8,3.8v5.6h-67.7v-5.6c7.5,0,13.2-2.8,17.9-7.5   c3.8-3.8,8.5-11.3,12.2-20.7L2206.4,172.2z M2201.7,221.2l-36.7,85.6h72.4L2201.7,221.2z M2366.4,356.7V210.8   c0-11.3-1.9-18.8-6.6-22.6c-4.7-3.8-12.2-5.6-23.5-5.6v-5.6h91.3c20.7,0,38.6,5.6,51.8,16c14.1,10.4,20.7,25.4,20.7,44.2   s-6.6,32.9-19.8,43.3c-12.2,9.4-26.3,14.1-44.2,14.1c-7.5,0-15.1,0-20.7-0.9c-6.6-0.9-12.2-1.9-16.9-2.8v64.9   c0,11.3,1.9,18.8,6.6,22.6s12.2,5.6,23.5,5.6v5.6h-93.2v-5.6c11.3,0,18.8-1.9,23.5-5.6c4.7-3.8,6.6-11.3,6.6-22.6L2366.4,356.7z    M2399.3,192v87.5c5.6,1.9,10.4,2.8,14.1,3.8s7.5,0.9,10.4,0.9c13.2,0,23.5-3.8,31.1-12.2c7.5-8.5,10.3-18.8,10.3-32   c0-14.1-3.8-26.3-12.2-36.7c-8.5-9.4-18.8-15.1-31.1-15.1c-4.7,0-8.5,0-11.3,0.9C2407.8,189.2,2404,190.1,2399.3,192z"></path>
</g>
</svg>
